<?xml version="1.0" encoding="utf-8"?>
<svg version="1.1" xmlns:xlink="http://www.w3.org/1999/xlink" width="40px" height="34px" xmlns="http://www.w3.org/2000/svg">
  <g transform="matrix(1 0 0 1 -292 -385 )">
    <path d="M 15.7604166666667 15.4573317307692  C 16.9340277777778 14.3062900641026  18.3472222222222 13.7307692307692  20 13.7307692307692  C 21.6527777777778 13.7307692307692  23.0659722222222 14.3062900641026  24.2395833333333 15.4573317307692  C 25.4131944444444 16.6083733974359  26 17.994391025641  26 19.6153846153846  C 26 21.2363782051282  25.4131944444444 22.6223958333333  24.2395833333333 23.7734375  C 23.0659722222222 24.9244791666667  21.6527777777778 25.5  20 25.5  C 18.3472222222222 25.5  16.9340277777778 24.9244791666667  15.7604166666667 23.7734375  C 14.5868055555556 22.6223958333333  14 21.2363782051282  14 19.6153846153846  C 14 17.994391025641  14.5868055555556 16.6083733974359  15.7604166666667 15.4573317307692  Z M 30 5.23076923076923  L 34.6666666666667 5.23076923076923  C 36.1388888888889 5.23076923076923  37.3958333333333 5.74158653846154  38.4375 6.76322115384616  C 39.4791666666667 7.78485576923077  40 9.0176282051282  40 10.4615384615385  L 40 28.7692307692308  C 40 30.213141025641  39.4791666666667 31.4459134615385  38.4375 32.4675480769231  C 37.3958333333333 33.4891826923077  36.1388888888889 34  34.6666666666667 34  L 5.33333333333333 34  C 3.86111111111111 34  2.60416666666667 33.4891826923077  1.5625 32.4675480769231  C 0.520833333333333 31.4459134615385  0 30.213141025641  0 28.7692307692308  L 0 10.4615384615385  C 0 9.0176282051282  0.520833333333333 7.78485576923077  1.5625 6.76322115384616  C 2.60416666666667 5.74158653846154  3.86111111111111 5.23076923076923  5.33333333333333 5.23076923076923  L 10 5.23076923076923  L 11.0625 2.45192307692308  C 11.3263888888889 1.78445512820513  11.8090277777778 1.20893429487179  12.5104166666667 0.725360576923076  C 13.2118055555556 0.241786858974362  13.9305555555556 0  14.6666666666667 0  L 25.3333333333333 0  C 26.0694444444444 0  26.7881944444444 0.241786858974362  27.4895833333333 0.725360576923076  C 28.1909722222222 1.20893429487179  28.6736111111111 1.78445512820513  28.9375 2.45192307692308  L 30 5.23076923076923  Z M 13.40625 26.0823317307692  C 15.2326388888889 27.8735977564103  17.4305555555556 28.7692307692308  20 28.7692307692308  C 22.5694444444444 28.7692307692308  24.7673611111111 27.8735977564103  26.59375 26.0823317307692  C 28.4201388888889 24.2910657051282  29.3333333333333 22.1354166666667  29.3333333333333 19.6153846153846  C 29.3333333333333 17.0953525641026  28.4201388888889 14.939703525641  26.59375 13.1484375  C 24.7673611111111 11.357171474359  22.5694444444444 10.4615384615385  20 10.4615384615385  C 17.4305555555556 10.4615384615385  15.2326388888889 11.357171474359  13.40625 13.1484375  C 11.5798611111111 14.939703525641  10.6666666666667 17.0953525641026  10.6666666666667 19.6153846153846  C 10.6666666666667 22.1354166666667  11.5798611111111 24.2910657051282  13.40625 26.0823317307692  Z " fill-rule="nonzero" fill="#000000" stroke="none" fill-opacity="0.494117647058824" transform="matrix(1 0 0 1 292 385 )" />
  </g>
</svg>